<svg width="24" height="24" viewBox="0 0 24 24" fill="none" xmlns="http://www.w3.org/2000/svg">
<g clip-path="url(#clip0)">
<path d="M23.7068 22.2937L16.8818 15.4688C18.2038 13.8358 18.9998 11.7608 18.9998 9.50084C18.9998 4.26289 14.7378 0.000915527 9.49988 0.000915527C4.26193 0.000915527 0 4.26284 0 9.50079C0 14.7387 4.26197 19.0007 9.49992 19.0007C11.7599 19.0007 13.8349 18.2047 15.4678 16.8827L22.2928 23.7077C22.4878 23.9027 22.7438 24.0007 22.9998 24.0007C23.2558 24.0007 23.5118 23.9027 23.7068 23.7077C24.0978 23.3167 24.0978 22.6847 23.7068 22.2937ZM9.49992 17.0007C5.36395 17.0007 2 13.6368 2 9.50079C2 5.36482 5.36395 2.00086 9.49992 2.00086C13.6359 2.00086 16.9998 5.36482 16.9998 9.50079C16.9998 13.6368 13.6359 17.0007 9.49992 17.0007Z" fill="black"/>
</g>
<defs>
<clipPath id="clip0">
<rect width="24" height="24" fill="white"/>
</clipPath>
</defs>
</svg>
